<?xml version="1.0" standalone="no"?>
<!DOCTYPE svg PUBLIC "-//W3C//DTD SVG 20010904//EN"
 "http://www.w3.org/TR/2001/REC-SVG-20010904/DTD/svg10.dtd">
<svg version="1.0" xmlns="http://www.w3.org/2000/svg"
 width="1920.000000pt" height="1920.000000pt" viewBox="0 0 1920.000000 1920.000000"
 preserveAspectRatio="xMidYMid meet">
<metadata>
Created by potrace 1.14, written by Peter Selinger 2001-2017
</metadata>
<g transform="translate(0.000000,1920.000000) scale(0.100000,-0.100000)"
fill="#000000" stroke="none">
<path d="M5089 15095 c-81 -17 -91 -22 -87 -46 3 -24 23 -37 78 -54 3 -1 42
-13 88 -27 85 -27 155 -45 457 -118 141 -34 247 -62 323 -85 7 -3 13 -4 15 -4
1 1 20 -6 42 -14 22 -8 74 -28 115 -43 157 -57 344 -140 570 -253 246 -124
295 -156 391 -254 48 -49 169 -201 169 -213 0 -3 13 -24 28 -47 110 -162 252
-521 323 -817 45 -187 48 -202 53 -235 3 -16 10 -59 16 -95 16 -93 18 -109 25
-170 3 -30 8 -66 10 -80 24 -154 24 -625 0 -771 -2 -13 -6 -51 -10 -84 -6 -60
-14 -104 -22 -117 -2 -4 -22 2 -46 12 -82 38 -96 34 -607 -127 -80 -26 -161
-53 -180 -61 -47 -20 -70 -29 -105 -40 -16 -6 -156 -56 -310 -111 -352 -127
-934 -317 -1025 -335 -14 -3 -44 -10 -68 -16 -23 -5 -59 -13 -80 -15 -20 -3
-48 -8 -62 -10 -14 -3 -41 -7 -60 -10 -19 -3 -42 -8 -50 -10 -8 -2 -28 -7 -45
-10 -48 -8 -64 -12 -170 -39 -55 -13 -111 -27 -125 -30 -14 -2 -101 -20 -195
-40 -93 -19 -190 -38 -215 -41 -24 -4 -47 -8 -50 -10 -3 -1 -27 -6 -54 -9 -27
-4 -52 -9 -56 -11 -3 -2 -26 -6 -50 -9 -25 -3 -57 -8 -72 -11 -16 -3 -40 -7
-55 -10 -16 -3 -44 -8 -63 -11 -19 -3 -60 -9 -90 -14 -30 -5 -75 -12 -100 -15
-24 -4 -47 -8 -50 -10 -3 -2 -27 -6 -53 -9 -26 -3 -57 -8 -69 -11 -13 -2 -36
-7 -52 -10 -16 -2 -52 -9 -80 -14 -28 -6 -63 -13 -78 -16 -62 -11 -84 -16 -98
-20 -8 -2 -31 -7 -50 -10 -19 -3 -52 -15 -72 -25 -41 -21 -128 -45 -198 -55
-25 -3 -56 -8 -70 -10 -14 -2 -92 -13 -175 -25 -82 -12 -153 -24 -156 -26 -4
-2 -24 -6 -45 -9 -89 -13 -111 -15 -154 -20 -25 -3 -72 -10 -105 -15 -33 -5
-78 -12 -100 -15 -22 -3 -74 -12 -115 -20 -41 -8 -106 -19 -145 -25 -38 -5
-79 -11 -90 -14 -11 -2 -45 -7 -75 -11 -57 -7 -79 -10 -145 -19 -22 -3 -67 -8
-100 -11 -33 -2 -89 -7 -125 -10 -162 -14 -315 -22 -575 -31 -342 -11 -398
-12 -572 -14 -177 -2 -201 -7 -187 -43 9 -23 50 -35 149 -42 50 -3 99 -8 110
-10 30 -7 100 -14 200 -21 167 -10 179 -12 183 -23 2 -6 14 -30 26 -53 30 -58
138 -116 281 -153 48 -13 71 -16 193 -31 120 -14 245 -31 282 -39 144 -32 168
-34 369 -37 l153 -3 20 28 c23 31 54 35 63 8 9 -29 30 -42 72 -46 21 -2 67 -7
102 -10 35 -3 71 -10 81 -15 18 -9 72 -16 210 -25 116 -8 128 -11 132 -37 3
-23 21 -30 117 -43 25 -3 48 -8 51 -10 4 -3 70 -7 147 -9 77 -3 151 -10 164
-15 13 -5 44 -30 67 -55 49 -51 45 -49 167 -71 146 -26 184 -31 310 -40 39 -3
80 -7 93 -10 12 -3 30 -7 40 -9 10 -2 35 -11 55 -20 21 -8 38 -15 40 -15 1 0
9 -2 17 -5 69 -22 151 -45 180 -50 19 -3 46 -8 60 -11 14 -3 86 -8 160 -10 74
-2 144 -6 155 -9 77 -17 125 -31 160 -47 74 -34 216 -52 405 -51 144 1 189 -2
254 -19 75 -19 207 -25 306 -15 223 24 236 24 330 1 14 -3 36 -9 50 -12 34 -7
217 -7 255 1 17 3 65 9 107 13 95 7 106 -5 66 -76 -62 -109 10 -161 242 -177
124 -9 170 -30 176 -84 2 -18 11 -42 20 -51 20 -23 100 -46 179 -54 102 -9
129 -16 152 -37 24 -22 157 -70 243 -87 89 -17 164 -20 197 -6 32 14 163 170
175 208 23 79 104 286 128 329 6 10 10 25 10 34 0 9 9 47 20 83 10 36 22 82
25 101 3 19 8 37 11 39 15 15 42 -27 79 -124 79 -203 106 -270 125 -300 10
-16 55 -102 99 -190 45 -88 87 -169 93 -179 7 -11 44 -70 82 -130 128 -206
198 -306 270 -383 39 -43 82 -94 96 -113 13 -19 76 -87 141 -150 115 -114 117
-116 187 -260 39 -80 95 -176 124 -215 86 -113 108 -167 223 -565 91 -317 143
-488 155 -510 18 -34 19 -73 3 -101 -15 -26 -15 -31 0 -66 9 -21 19 -54 23
-73 6 -32 104 -249 206 -455 24 -49 78 -146 118 -215 41 -69 80 -133 85 -142
6 -10 35 -57 65 -105 30 -49 57 -92 59 -98 10 -23 157 -245 200 -300 71 -93
188 -211 271 -273 95 -72 269 -158 429 -212 170 -58 196 -53 266 56 57 89 99
196 111 284 6 46 29 100 42 100 4 0 21 13 37 29 48 44 69 53 102 40 41 -15
123 -72 248 -169 195 -153 288 -210 342 -210 41 0 110 38 139 76 26 33 87 154
79 154 -3 0 0 12 6 27 6 16 12 35 14 43 9 42 37 139 57 200 21 66 21 75 9 147
-7 43 -16 83 -19 88 -4 6 -7 15 -8 21 -1 5 -20 61 -43 122 -118 321 -385 868
-600 1228 -39 65 -71 124 -71 131 0 6 10 19 22 27 20 14 21 19 11 43 -118 296
-176 430 -247 570 -98 196 -90 176 -216 503 -54 140 -118 305 -143 367 -25 62
-48 125 -50 140 -6 33 -51 194 -77 276 -17 52 -95 356 -106 416 -3 13 -16 51
-30 84 -31 73 -34 127 -8 142 38 21 73 63 83 101 6 22 13 86 16 142 5 96 15
142 33 142 16 0 40 57 40 93 0 36 -10 53 -47 79 -33 24 -40 48 -26 95 19 61
39 89 72 97 15 4 47 28 70 53 l41 45 83 -6 c65 -5 88 -2 107 10 24 16 34 17
142 11 42 -3 95 3 145 15 105 25 165 25 315 -2 102 -18 141 -21 215 -14 50 4
119 7 155 6 35 -1 97 5 138 13 61 13 80 22 106 50 l33 35 114 -4 c126 -5 185
2 334 40 105 26 276 91 335 127 30 18 48 20 125 18 70 -2 111 4 185 23 153 40
276 83 341 117 61 33 149 112 149 134 0 7 9 20 19 29 19 17 57 20 146 13 17
-2 66 5 110 16 44 10 87 20 95 22 73 15 259 91 310 126 35 23 114 47 179 53
64 6 102 30 117 76 13 40 25 47 111 64 37 8 79 17 93 20 14 3 38 9 54 11 16 3
37 10 47 16 11 5 19 8 19 5 0 -3 15 0 33 5 17 6 40 12 49 14 23 5 162 44 223
62 69 20 159 51 231 79 34 13 79 26 100 29 22 4 46 8 54 10 8 3 32 7 54 11 21
3 46 7 55 9 9 1 36 6 61 10 55 9 76 13 115 21 34 7 180 51 210 64 11 4 49 18
85 30 36 12 74 26 85 31 11 4 55 20 99 33 45 15 85 34 92 45 10 14 31 22 72
26 97 11 114 15 198 41 64 19 108 26 210 29 114 3 153 8 240 28 12 3 41 17 63
32 64 40 84 45 204 50 306 13 318 14 482 50 61 13 126 26 145 29 41 7 170 25
220 31 19 2 60 7 90 10 120 14 184 50 143 81 -19 14 -168 51 -238 59 -22 3
-53 7 -70 10 -40 6 -232 8 -242 2 -4 -3 -33 -8 -63 -12 -30 -4 -57 -8 -60 -10
-3 -2 -26 -6 -50 -10 -25 -3 -67 -10 -95 -15 -27 -5 -75 -12 -105 -16 -30 -3
-57 -7 -60 -9 -3 -1 -44 -6 -92 -10 -48 -3 -98 -8 -110 -10 -13 -2 -63 -7
-113 -10 -49 -4 -106 -8 -125 -10 -19 -2 -100 -6 -180 -10 -80 -5 -163 -9
-185 -10 -323 -20 -2032 -27 -2550 -12 -366 12 -726 25 -855 32 -41 3 -120 7
-175 10 -141 7 -314 24 -326 31 -5 3 -98 24 -214 49 -16 4 -121 8 -232 10
-139 2 -218 8 -255 18 -29 8 -91 17 -138 21 -47 3 -96 8 -110 11 -29 6 -127
13 -295 20 -128 5 -180 12 -315 46 -75 19 -122 22 -415 27 -565 9 -687 7 -785
-13 -34 -6 -143 -45 -270 -95 -367 -145 -427 -158 -503 -111 -56 34 -94 98
-299 500 -66 129 -131 251 -144 272 -13 21 -24 48 -24 59 0 11 18 75 40 143
54 163 66 266 48 407 -3 30 -9 78 -13 105 -3 28 -8 57 -10 65 -2 8 -6 35 -9
60 -3 25 -8 54 -10 65 -2 11 -7 45 -11 75 -4 30 -9 64 -11 75 -2 11 -6 36 -9
55 -8 67 -35 127 -135 305 -90 161 -211 293 -368 403 -96 68 -335 164 -472
191 -30 6 -64 12 -75 14 -142 29 -495 41 -730 24 -55 -4 -175 -10 -267 -13
-171 -7 -193 -4 -295 37 -15 7 -32 13 -38 15 -5 1 -62 21 -125 44 -202 72
-419 144 -680 222 -19 6 -46 14 -60 19 -26 8 -169 48 -198 54 -9 2 -62 15
-117 29 -55 14 -111 27 -125 30 -14 3 -36 8 -50 11 -39 8 -240 43 -295 50 -91
13 -328 13 -386 0z"/>
</g>
</svg>
