<?xml version="1.0" standalone="no"?>
<!DOCTYPE svg PUBLIC "-//W3C//DTD SVG 20010904//EN"
 "http://www.w3.org/TR/2001/REC-SVG-20010904/DTD/svg10.dtd">
<svg version="1.0" xmlns="http://www.w3.org/2000/svg"
 width="1600.000000pt" height="1200.000000pt" viewBox="0 0 1600.000000 1200.000000"
 preserveAspectRatio="xMidYMid meet">

<g transform="translate(0.000000,1200.000000) scale(0.100000,-0.100000)"
fill="#f9ebdf" stroke="none">
<path d="M0 6000 l0 -6000 8000 0 8000 0 0 6000 0 6000 -8000 0 -8000 0 0
-6000z m6610 2259 c30 -17 89 -49 130 -71 41 -23 149 -82 240 -133 91 -50 199
-110 240 -132 41 -22 136 -74 210 -115 129 -72 345 -191 550 -303 148 -81 387
-212 595 -327 105 -58 222 -122 260 -143 39 -21 104 -57 145 -80 41 -23 107
-59 145 -80 39 -21 131 -71 205 -113 186 -102 311 -171 550 -302 113 -62 288
-158 390 -215 102 -56 439 -242 750 -413 658 -360 656 -359 695 -382 17 -9 62
-34 100 -55 120 -66 467 -256 535 -294 36 -20 91 -50 123 -66 32 -17 70 -40
83 -52 l24 -22 -2 -213 c-3 -237 -3 -235 -70 -205 -18 8 -114 41 -213 73 -99
32 -182 61 -185 64 -3 3 -15 6 -28 8 -28 4 -308 95 -354 115 -33 14 -127 37
-154 37 -11 0 -14 -16 -14 -68 0 -37 -5 -73 -10 -78 -7 -7 -48 -4 -128 8 -64
10 -182 27 -262 38 -80 10 -219 30 -310 44 -91 13 -187 27 -215 30 -27 4 -61
8 -75 11 -46 9 -184 28 -360 51 -19 2 -62 9 -95 14 -57 9 -531 77 -735 105
-52 8 -108 16 -125 18 -34 6 -52 9 -265 38 -85 12 -161 26 -169 33 -11 8 -15
8 -18 -1 -3 -8 -13 -9 -34 -3 -28 8 -36 4 -107 -62 -165 -153 -329 -270 -529
-376 l-125 -67 -69 -124 c-38 -69 -69 -126 -69 -127 0 -1 -59 -109 -130 -239
-72 -130 -128 -240 -125 -246 4 -5 62 -9 130 -9 147 0 155 -4 155 -84 0 -28
-5 -57 -12 -64 -8 -8 -65 -12 -187 -12 -97 0 -181 -4 -187 -8 -6 -4 -69 -113
-140 -243 -71 -130 -136 -247 -145 -260 -17 -24 -17 -24 -48 -6 -18 10 -44 25
-58 32 -52 27 -54 20 79 263 16 29 28 57 26 63 -2 5 -75 -34 -163 -86 -88 -52
-165 -95 -172 -95 -7 0 -29 26 -49 57 -27 42 -34 61 -27 73 6 8 76 55 157 103
80 49 143 93 140 98 -3 5 -183 9 -419 9 -399 0 -415 1 -425 19 -14 27 -13 114
2 129 9 9 81 12 264 12 189 0 254 3 262 13 11 13 35 58 137 252 37 72 83 156
102 189 18 32 35 68 36 80 2 18 -4 21 -43 23 -140 8 -308 30 -505 68 -53 10
-228 64 -310 96 -44 17 -93 35 -110 41 -16 6 -50 23 -75 36 -60 33 -67 37
-125 63 -27 12 -79 40 -114 61 -34 21 -66 38 -70 38 -4 0 -21 13 -38 29 -18
16 -34 27 -37 24 -5 -5 -31 13 -99 68 -18 14 -47 34 -65 43 -18 9 -30 21 -27
25 2 5 -5 11 -18 15 -27 7 -79 51 -70 60 3 3 -3 6 -15 6 -12 0 -29 11 -38 25
-9 14 -21 25 -26 25 -6 0 -19 11 -30 25 -11 14 -25 25 -32 25 -7 0 -44 33 -83
73 -39 39 -84 83 -102 96 -17 13 -28 27 -25 32 3 5 -2 9 -11 9 -9 0 -14 4 -11
8 3 5 -5 15 -18 22 -13 7 -30 23 -37 36 -7 13 -23 31 -36 39 -13 9 -21 21 -17
27 4 6 3 8 -3 5 -6 -4 -16 0 -23 8 -10 12 -10 15 1 15 8 0 3 6 -11 13 -43 22
-48 47 -50 254 0 151 2 193 12 193 10 0 10 2 1 8 -8 5 -11 99 -11 350 l0 343
-29 37 c-15 20 -28 40 -28 43 0 3 -17 20 -37 38 -21 18 -37 36 -36 39 1 4 -30
40 -69 80 l-71 72 -58 1 c-146 2 -184 5 -194 15 -12 12 15 37 485 455 22 20
53 47 68 60 16 13 53 73 83 134 126 256 327 443 592 549 169 68 226 74 667 75
l390 1 55 -31z"/>
<path d="M5775 8119 c-118 -14 -296 -82 -401 -153 -165 -112 -313 -309 -373
-497 -41 -127 -63 -296 -40 -310 8 -5 327 -9 710 -9 568 0 699 2 708 13 16 20
16 934 0 953 -9 11 -60 14 -273 13 -143 -1 -292 -5 -331 -10z m-297 -493 c15
-8 38 -26 51 -40 22 -24 32 -26 101 -26 46 0 81 -5 88 -12 7 -7 12 -33 12 -60
0 -60 -14 -68 -112 -68 -71 0 -75 -1 -106 -34 -46 -49 -104 -57 -169 -25 -62
31 -86 74 -80 146 4 56 20 83 72 114 36 22 105 25 143 5z"/>
<path d="M5374 7504 c-8 -33 15 -59 44 -50 46 15 34 76 -14 76 -17 0 -25 -7
-30 -26z"/>
<path d="M6554 8076 c-3 -7 -4 -267 -2 -577 3 -554 4 -566 27 -659 75 -302
270 -542 546 -671 45 -21 120 -49 166 -61 l84 -22 1408 -3 c882 -2 1407 0
1407 6 0 10 -115 81 -228 142 -184 98 -248 132 -257 139 -11 9 -104 59 -170
92 -22 12 -42 23 -45 27 -3 3 -19 13 -35 22 -122 63 -272 143 -280 149 -15 12
-82 49 -165 92 -41 21 -81 47 -88 56 -7 9 -20 16 -28 14 -8 -2 -27 5 -42 16
-15 10 -63 38 -107 62 -44 24 -100 54 -125 68 -25 14 -79 43 -120 65 -41 22
-77 43 -80 47 -3 4 -15 10 -27 14 -13 4 -47 22 -77 40 -30 18 -80 46 -113 62
-32 16 -60 32 -63 36 -3 4 -21 14 -40 23 -19 9 -53 27 -75 39 -22 13 -80 45
-130 71 -49 26 -94 51 -100 56 -5 4 -41 24 -80 44 -65 35 -89 48 -185 102 -19
11 -66 37 -105 58 -38 22 -71 43 -73 47 -2 4 -10 8 -17 8 -12 0 -152 76 -275
149 -25 15 -61 33 -80 41 -19 8 -50 25 -69 37 -19 13 -40 23 -47 23 -7 0 -14
4 -16 8 -3 8 -272 152 -283 152 -3 0 -8 -6 -11 -14z"/>
<path d="M4720 7259 c-36 -33 -80 -71 -97 -86 -18 -14 -30 -29 -27 -34 8 -13
181 -11 190 2 10 17 16 179 7 179 -4 0 -37 -28 -73 -61z"/>
<path d="M4728 7003 c-10 -2 -18 -8 -18 -11 1 -8 68 -82 75 -82 3 0 5 20 5 44
0 31 -5 46 -16 50 -17 6 -19 6 -46 -1z"/>
<path d="M4963 6983 c-10 -4 -13 -147 -13 -670 l0 -665 152 -154 c88 -90 156
-150 161 -145 5 5 8 332 8 750 0 517 3 741 11 741 7 0 7 4 0 13 -6 6 -10 36
-10 65 -1 28 -4 57 -7 62 -6 10 -278 13 -302 3z"/>
<path d="M5443 6978 c-13 -17 -14 -856 -1 -880 8 -17 53 -18 733 -18 413 0
726 4 729 9 3 5 -21 28 -54 52 -33 25 -58 50 -55 57 2 7 -4 12 -14 12 -22 0
-45 25 -36 40 3 5 1 10 -6 10 -24 0 -64 55 -60 83 0 4 -6 7 -15 7 -18 0 -44
23 -44 39 0 6 -5 11 -11 11 -5 0 -15 13 -20 29 -6 16 -17 32 -25 35 -10 4 -13
13 -9 26 4 14 2 20 -9 20 -10 0 -13 6 -10 15 4 8 1 15 -5 15 -13 0 -52 74 -55
106 -1 12 -8 29 -14 36 -6 8 -13 25 -16 38 -2 14 -12 52 -21 85 -8 33 -18 83
-21 110 -3 28 -11 56 -16 63 -8 9 -115 12 -473 12 -358 0 -465 -3 -472 -12z"/>
<path d="M9418 5922 c-302 -1 -548 -6 -548 -10 0 -4 21 -15 48 -24 75 -26
1020 -335 1707 -558 99 -32 317 -103 485 -158 168 -55 481 -157 695 -227 215
-69 435 -142 490 -160 91 -31 101 -33 113 -18 18 25 15 97 -5 115 -19 15 -96
60 -198 113 -52 27 -192 105 -395 218 -30 17 -72 39 -92 50 -20 11 -35 24 -32
28 2 4 -4 7 -13 7 -10 -1 -87 38 -172 85 -85 48 -158 87 -162 87 -4 0 -12 6
-16 13 -4 7 -24 19 -43 27 -19 7 -42 18 -50 25 -8 6 -27 16 -42 23 -16 6 -28
16 -28 22 0 6 -6 10 -12 8 -12 -2 -87 30 -98 41 -3 4 -25 17 -50 30 -25 14
-72 39 -105 58 -33 18 -67 36 -75 40 -8 4 -37 20 -65 36 -27 16 -91 51 -141
78 l-92 48 -278 3 c-154 2 -525 2 -826 0z"/>
<path d="M5666 5911 c-3 -5 50 -49 118 -97 175 -126 721 -519 916 -660 91 -65
282 -203 425 -306 143 -102 278 -200 301 -217 47 -36 58 -37 151 -16 267 61
573 209 803 388 89 70 270 247 337 330 62 77 181 254 213 317 12 23 18 46 13
50 -12 11 -124 50 -355 125 -115 37 -208 71 -208 75 0 4 -10 9 -22 10 -76 8
-2688 9 -2692 1z"/>
<path d="M5436 5833 c-3 -10 -5 -157 -4 -328 l1 -310 32 -30 c43 -40 169 -130
287 -204 329 -207 667 -335 1018 -386 135 -20 441 -26 447 -9 2 6 -33 37 -78
70 -45 32 -105 77 -133 99 -28 22 -71 54 -96 70 -25 16 -56 39 -70 51 -14 12
-53 40 -88 64 -34 23 -60 46 -56 51 3 5 -2 9 -11 9 -9 0 -21 5 -28 10 -7 6
-34 25 -62 44 -27 19 -49 39 -48 44 2 6 -5 10 -15 9 -10 0 -47 22 -84 51 -36
29 -70 52 -76 52 -6 0 -12 4 -14 8 -1 4 -64 50 -138 101 -74 52 -139 99 -145
105 -5 6 -32 27 -60 46 -27 18 -59 44 -70 57 -11 13 -27 23 -34 23 -12 0 -33
14 -104 71 -18 14 -65 47 -106 74 -40 27 -86 61 -101 75 -15 14 -38 31 -51 37
-13 7 -43 23 -66 38 -38 23 -42 24 -47 8z"/>
<path d="M9090 5600 c-37 -72 -132 -224 -181 -289 -27 -36 -45 -69 -41 -73 8
-8 298 -53 702 -108 542 -75 1636 -232 1749 -251 29 -5 57 -6 62 -3 33 20 -15
40 -423 174 -238 78 -505 165 -593 195 -88 29 -295 96 -460 150 -520 169 -587
193 -574 199 8 3 5 4 -6 1 -11 -2 -56 7 -100 20 -44 14 -88 25 -97 25 -10 0
-26 -17 -38 -40z"/>
<path d="M6727 4959 c7 -7 15 -10 18 -7 3 3 -2 9 -12 12 -14 6 -15 5 -6 -5z"/>
<path d="M7625 4458 c-60 -16 -162 -35 -225 -43 -63 -9 -120 -21 -126 -28 -7
-6 -33 -52 -60 -102 -26 -49 -90 -169 -141 -265 -51 -96 -93 -178 -93 -182 0
-5 95 -7 211 -6 l211 3 69 125 c39 69 91 163 116 210 25 47 52 94 58 105 43
69 105 199 98 205 -4 3 -57 -6 -118 -22z"/>
</g>
</svg>
