<?xml version="1.0" standalone="no"?>
<!DOCTYPE svg PUBLIC "-//W3C//DTD SVG 20010904//EN"
 "http://www.w3.org/TR/2001/REC-SVG-20010904/DTD/svg10.dtd">
<svg version="1.0" xmlns="http://www.w3.org/2000/svg"
 width="1600.000000pt" height="1200.000000pt" viewBox="0 0 1600.000000 1200.000000"
 preserveAspectRatio="xMidYMid meet">

<g transform="translate(0.000000,1200.000000) scale(0.100000,-0.100000)"
fill="#f9ebdf" stroke="none">
<path d="M0 6000 l0 -6000 8000 0 8000 0 0 6000 0 6000 -8000 0 -8000 0 0
-6000z m6368 2228 c16 -16 17 -973 2 -983 -17 -10 -1449 -10 -1460 1 -13 13 6
182 31 274 29 108 108 262 182 356 143 180 374 313 612 353 83 14 619 13 633
-1z m346 -110 c83 -44 180 -98 216 -118 36 -20 97 -54 135 -75 39 -21 113 -62
165 -90 52 -29 207 -114 345 -189 137 -76 254 -141 260 -145 5 -4 55 -32 110
-61 55 -29 105 -56 110 -60 6 -4 55 -31 109 -60 55 -29 142 -77 194 -107 52
-29 96 -53 98 -53 2 0 25 -13 51 -28 26 -16 89 -50 138 -77 50 -26 106 -57
125 -68 85 -47 212 -117 295 -162 50 -26 95 -51 100 -55 10 -7 56 -33 190
-105 39 -21 99 -55 135 -75 36 -21 166 -93 290 -160 393 -215 484 -267 488
-279 5 -16 -2769 -16 -2872 0 -249 39 -474 170 -639 374 -65 81 -176 303 -162
325 3 6 2 10 -3 10 -5 0 -15 30 -22 68 -7 37 -15 76 -18 87 -7 25 -14 1155 -8
1172 3 7 9 13 13 13 4 0 75 -37 157 -82z m-1930 -775 c-3 -54 -10 -102 -15
-107 -10 -11 -277 -12 -287 -1 -4 4 0 10 8 15 8 5 76 49 150 99 74 50 139 90
143 91 5 0 5 -44 1 -97z m-30 -199 c10 -9 16 -33 16 -60 0 -35 -3 -44 -17 -44
-25 0 -128 95 -119 109 11 17 102 14 120 -5z m474 -91 c7 -13 9 -1605 3 -1655
-3 -24 -41 5 -154 120 -69 70 -136 140 -149 157 l-23 29 -3 669 c-2 492 1 673
9 683 9 11 46 14 160 14 131 0 149 -2 157 -17z m1150 0 c5 -10 12 -44 16 -76
29 -277 205 -582 441 -762 41 -32 72 -61 69 -66 -3 -5 -332 -9 -743 -9 -622 0
-740 2 -750 14 -9 10 -12 134 -11 456 0 243 3 446 6 451 3 5 209 9 484 9 446
0 480 -1 488 -17z m2017 -1100 c33 -12 179 -61 325 -108 146 -47 269 -90 273
-94 25 -24 -162 -303 -320 -477 -275 -306 -692 -550 -1091 -640 -82 -18 -106
-15 -142 18 -14 13 -38 32 -55 42 -16 11 -64 45 -106 75 -42 31 -136 99 -209
151 -73 52 -143 104 -155 116 -13 12 -30 24 -38 27 -8 3 -82 55 -163 114 -137
100 -252 183 -358 257 -22 16 -43 32 -46 36 -3 3 -32 25 -65 48 -33 23 -83 58
-112 79 -29 21 -72 52 -95 68 -24 17 -86 62 -139 100 -53 39 -106 77 -118 85
-13 8 -52 37 -88 64 -57 42 -63 51 -47 57 10 4 620 7 1354 6 l1335 -2 60 -22z
m2344 -52 c145 -78 382 -209 861 -473 25 -14 158 -87 295 -163 138 -75 288
-159 335 -185 47 -26 126 -69 175 -95 145 -77 145 -77 145 -141 0 -68 -12 -74
-83 -47 -29 11 -72 26 -97 32 -25 7 -61 18 -80 26 -36 14 -473 157 -855 280
-115 37 -259 84 -320 105 -60 20 -144 47 -185 60 -41 12 -194 62 -340 110
-146 49 -454 150 -685 225 -231 75 -458 149 -505 165 -47 15 -166 53 -265 85
-207 66 -224 73 -204 86 8 5 385 8 838 9 l825 0 145 -79z m-5184 -96 c72 -53
148 -108 170 -123 50 -35 368 -265 795 -573 179 -130 348 -251 375 -271 119
-84 280 -201 309 -223 48 -39 23 -45 -159 -41 -500 12 -971 175 -1442 498 -54
37 -112 80 -130 95 -17 16 -41 36 -52 45 -21 17 -21 25 -21 353 0 263 3 335
13 335 7 0 71 -43 142 -95z m3735 -146 c52 -16 196 -63 320 -104 571 -186
1233 -403 1415 -462 469 -152 475 -155 475 -178 0 -17 -26 -19 -96 -6 -27 5
-67 12 -89 15 -22 3 -148 21 -280 40 -132 19 -352 51 -490 70 -137 19 -281 40
-320 47 -76 12 -171 25 -250 35 -27 3 -104 15 -170 26 -66 10 -127 19 -135 20
-8 0 -89 11 -180 23 -91 13 -248 35 -350 50 -218 30 -230 32 -230 45 0 5 20
36 44 67 48 64 147 221 186 296 14 26 32 47 40 47 8 0 58 -14 110 -31z m-1341
-1196 c-59 -111 -81 -152 -169 -313 -35 -63 -76 -140 -93 -170 -16 -30 -38
-70 -49 -88 -35 -57 -25 -62 120 -62 99 0 132 -3 141 -14 7 -9 11 -40 9 -78
l-3 -63 -192 -5 c-108 -3 -196 -9 -201 -15 -5 -5 -25 -39 -44 -75 -83 -155
-222 -407 -236 -427 -8 -13 -21 -23 -28 -23 -25 0 -115 50 -121 67 -7 17 14
60 99 213 49 87 54 100 40 100 -5 0 -80 -43 -167 -95 -88 -52 -164 -95 -170
-95 -25 0 -92 108 -83 132 3 7 74 54 157 103 83 50 151 96 151 103 0 9 -93 12
-430 12 l-430 0 -10 24 c-13 34 -6 116 11 127 8 5 127 9 264 9 138 0 255 4
261 8 14 8 27 31 124 217 40 77 93 175 117 219 23 43 43 82 43 87 0 4 6 11 13
16 16 11 187 11 187 0 0 -7 -39 -84 -133 -257 -108 -201 -146 -277 -140 -283
3 -4 97 -7 208 -7 236 0 213 -11 290 135 26 50 51 95 55 100 4 6 29 51 55 100
26 50 64 119 84 155 20 36 56 104 81 152 l45 88 98 0 99 0 -53 -97z"/>
<path d="M5295 7717 c-72 -40 -96 -132 -54 -206 50 -90 164 -102 248 -26 36
32 42 34 122 37 l84 3 3 63 c2 34 -1 62 -5 63 -4 0 -46 2 -93 5 -77 4 -87 7
-115 34 -57 55 -124 64 -190 27z m101 -95 c6 -4 14 -17 18 -29 5 -17 1 -26
-18 -38 -31 -21 -66 -6 -66 28 0 38 36 59 66 39z"/>
</g>
</svg>
